<svg width="61" height="61" viewBox="0 0 61 61" fill="none" xmlns="http://www.w3.org/2000/svg">
<circle cx="30.5" cy="30.5" r="30.5" fill="#0956C2"/>
<path d="M43.9288 21.111H39.1139L35.9356 18.2039C35.5865 17.8846 35.1135 17.7049 34.6192 17.7049H27.1715C26.6772 17.7049 26.2042 17.8846 25.8551 18.2039L22.6768 21.111H17.8619C16.8327 21.111 16 21.8728 16 22.8141V41.5481C16 42.4895 16.8327 43.2512 17.8619 43.2512H43.9288C44.958 43.2512 45.7907 42.4895 45.7907 41.5481V22.8141C45.7907 21.8728 44.958 21.111 43.9288 21.111ZM30.8953 38.1419C26.7824 38.1419 23.4477 35.0917 23.4477 31.3296C23.4477 27.5674 26.7824 24.5172 30.8953 24.5172C35.0083 24.5172 38.343 27.5674 38.343 31.3296C38.343 35.0917 35.0083 38.1419 30.8953 38.1419Z" fill="white"/>
<path d="M30.8957 34.7357C32.9523 34.7357 34.6195 33.2107 34.6195 31.3296C34.6195 29.4484 32.9523 27.9234 30.8957 27.9234C28.8391 27.9234 27.1719 29.4484 27.1719 31.3296C27.1719 33.2107 28.8391 34.7357 30.8957 34.7357Z" fill="white"/>
</svg>
