<svg width="22" height="20" viewBox="0 0 22 20" fill="none" xmlns="http://www.w3.org/2000/svg">
<path d="M11 8.2V19M11 8.2C11 5.67976 11 4.41965 10.5156 3.45705C10.0894 2.61031 9.40956 1.9219 8.57329 1.49047C7.62257 1 6.37801 1 3.88889 1H2.77778C2.1555 1 1.84436 1 1.60668 1.12261C1.39761 1.23048 1.22763 1.40258 1.1211 1.61426C1 1.85491 1 2.16994 1 2.8V14.95C1 15.5801 1 15.8951 1.1211 16.1358C1.22763 16.3475 1.39761 16.5195 1.60668 16.6274C1.84436 16.75 2.1555 16.75 2.77778 16.75H6.05187C6.65208 16.75 6.95218 16.75 7.24238 16.8024C7.49995 16.8489 7.75122 16.9258 7.99101 17.0319C8.26116 17.1513 8.51086 17.3198 9.01022 17.657L11 19M11 8.2C11 5.67976 11 4.41965 11.4844 3.45705C11.9106 2.61031 12.5904 1.9219 13.4267 1.49047C14.3774 1 15.622 1 18.1111 1H19.2222C19.8446 1 20.1557 1 20.3933 1.12261C20.6024 1.23048 20.7723 1.40258 20.8789 1.61426C21 1.85491 21 2.16994 21 2.8V14.95C21 15.5801 21 15.8951 20.8789 16.1358C20.7723 16.3475 20.6024 16.5195 20.3933 16.6274C20.1557 16.75 19.8446 16.75 19.2222 16.75H15.9481C15.3479 16.75 15.0478 16.75 14.7577 16.8024C14.5 16.8489 14.2488 16.9258 14.009 17.0319C13.7389 17.1513 13.4891 17.3198 12.9898 17.657L11 19" stroke="white" stroke-width="2" stroke-linecap="round" stroke-linejoin="round"/>
</svg>
