<svg width="19" height="18" viewBox="0 0 19 18" fill="none" xmlns="http://www.w3.org/2000/svg">
<path d="M17.1823 7.64816C17.3316 7.55948 17.4581 7.41377 17.5465 7.22922C17.6348 7.04456 17.681 6.82915 17.6793 6.60948C17.6776 6.38984 17.6281 6.1757 17.537 5.99358C17.4458 5.81146 17.3171 5.66936 17.1665 5.58488L10.024 1.20246C9.8069 1.06905 9.57098 1 9.33232 1C9.09373 1 8.85782 1.06905 8.64065 1.20246L1.49902 5.58039C1.35066 5.66792 1.22445 5.81178 1.13583 5.9944C1.0472 6.17702 1 6.39047 1 6.60865C1 6.82679 1.0472 7.0403 1.13583 7.22294C1.22445 7.40546 1.35066 7.54937 1.49902 7.63693L8.64065 12.0238C8.85782 12.1572 9.09373 12.2262 9.33232 12.2262C9.57098 12.2262 9.8069 12.1572 10.024 12.0238L17.1823 7.64816Z" stroke="white" stroke-width="2" stroke-linecap="round" stroke-linejoin="round"/>
<path d="M17.665 6.61327V13.3485" stroke="white" stroke-width="2" stroke-linecap="round" stroke-linejoin="round"/>
<path d="M4.33203 9.41965V13.3486C4.33203 14.2417 4.85881 15.0983 5.7965 15.7298C6.73418 16.3614 8.00595 16.7162 9.33203 16.7162C10.6581 16.7162 11.9299 16.3614 12.8675 15.7298C13.8053 15.0983 14.332 14.2417 14.332 13.3486V9.41965" stroke="white" stroke-width="2" stroke-linecap="round" stroke-linejoin="round"/>
</svg>
