<svg width="32" height="32" viewBox="0 0 32 32" fill="none" xmlns="http://www.w3.org/2000/svg">
<path fill-rule="evenodd" clip-rule="evenodd" d="M32 4.57143C32 2.04571 29.9543 0 27.4286 0H4.57143C2.04571 0 0 2.04571 0 4.57143V27.4286C0 29.9543 2.04571 32 4.57143 32H27.4286C29.9543 32 32 29.9543 32 27.4286V4.57143Z" fill="#1584FF"/>
<path fill-rule="evenodd" clip-rule="evenodd" d="M17.4284 18.3029C17.937 18.3029 18.617 18.3886 19.3598 18.7257C20.217 19.1143 21.1713 19.8629 22.057 21.0629C22.3313 21.4343 22.7713 22.2057 22.9998 22.6057C23.0913 22.76 23.257 22.8571 23.4341 22.8571H26.177C26.3256 22.8571 26.4627 22.7829 26.5427 22.6572C26.6227 22.5314 26.6341 22.3771 26.5713 22.24C26.3598 21.7829 26.1084 21.24 26.1084 21.24C24.9141 18.8286 23.5141 17.3314 22.1656 16.3943C23.0684 15.6514 23.9884 14.6114 24.857 13.1543C25.5941 11.92 25.9713 10.8514 26.1484 10.2457C26.177 10.12 26.1484 9.98287 26.0684 9.88001C25.9884 9.77715 25.8627 9.71429 25.7313 9.71429C25.0056 9.71429 23.7484 9.71429 23.137 9.71429C22.9256 9.71429 22.7313 9.83429 22.6341 10.0286C22.5484 10.2 22.457 10.3829 22.457 10.3829C21.3198 12.68 20.0856 13.8629 18.9484 14.4057C18.3598 14.6857 17.8284 14.7714 17.417 14.7829V10.2914C17.417 10.1372 17.3541 9.99429 17.2513 9.88572C17.1427 9.77715 16.9998 9.72001 16.8456 9.72001H14.5598C14.4056 9.72001 14.2627 9.78287 14.1541 9.88572C14.0456 9.99429 13.9884 10.1372 13.9884 10.2914V19.2C10.7713 17.84 9.11984 14.4857 9.13127 11.44C9.13127 11.44 9.13127 10.7943 9.13127 10.2972C9.13127 9.98287 8.87413 9.72572 8.55984 9.72572C7.92556 9.72572 6.90841 9.72572 6.27413 9.72001C5.95984 9.72001 5.7027 9.97144 5.7027 10.2914C5.7027 10.7886 5.7027 11.4343 5.7027 11.4343C5.68556 16.56 9.11984 22.6629 15.417 22.8686H16.8456C17.1598 22.8686 17.417 22.6114 17.417 22.2971V18.3143L17.4284 18.3029Z" fill="white"/>
</svg>
