<svg width="17" height="18" viewBox="0 0 17 18" fill="none" xmlns="http://www.w3.org/2000/svg">
<path d="M7.55555 0C5.48078 0 3.77778 1.71007 3.77778 3.79217C3.77778 4.91549 4.27409 5.92998 5.05644 6.62662C2.10279 7.72454 0 10.7078 0 14.1606C1.89997e-05 14.4287 0.106195 14.6859 0.295175 14.8756C0.484155 15.0652 0.740462 15.1717 1.00772 15.1717H5.8552C6.05334 14.4369 6.37063 13.7532 6.78884 13.1495H2.09519C2.54087 10.3089 4.83201 8.1982 7.55555 8.1982C7.93301 8.1982 8.3017 8.24009 8.65878 8.3175C8.78141 7.08197 9.65388 6.05738 10.8083 5.71062C11.1413 5.14665 11.3333 4.49048 11.3333 3.79217C11.3333 1.71007 9.63033 0 7.55555 0ZM7.55555 2.02229C8.5405 2.02229 9.31789 2.80237 9.31789 3.79217C9.31789 4.78196 8.5405 5.56216 7.55555 5.56216C6.57061 5.56216 5.79316 4.78196 5.79316 3.79217C5.79316 2.80237 6.57061 2.02229 7.55555 2.02229Z" fill="#0956C2"/>
<path d="M11.3334 5.517C9.77733 5.517 8.50008 6.91617 8.50008 8.6197C8.50008 9.53878 8.8723 10.3688 9.45906 10.9388C7.24383 11.8371 5.66675 14.278 5.66675 17.1029C5.66677 17.3223 5.7464 17.5328 5.88813 17.6879C6.02986 17.8431 6.22208 17.9302 6.42252 17.9302H11.3334H16.2443C16.4447 17.9302 16.6369 17.8431 16.7787 17.6879C16.9204 17.5328 17.0001 17.3224 17.0001 17.1029C17.0001 14.278 15.423 11.8371 13.2078 10.9388C13.7946 10.3688 14.1667 9.53878 14.1667 8.6197C14.1667 6.91617 12.8895 5.517 11.3334 5.517ZM11.3334 7.17161C12.0721 7.17161 12.6552 7.80987 12.6552 8.6197C12.6552 9.42954 12.0721 10.0679 11.3334 10.0679C10.5947 10.0679 10.0116 9.42954 10.0116 8.6197C10.0116 7.80987 10.5947 7.17161 11.3334 7.17161ZM11.3334 12.2246C13.3761 12.2246 15.0944 13.9515 15.4287 16.2756H11.3334H7.23814C7.5724 13.9515 9.29076 12.2246 11.3334 12.2246Z" fill="#0956C2"/>
</svg>
